<svg xmlns="http://www.w3.org/2000/svg" viewBox="0 0 40 40"><defs><style>.cls-1{fill:#006eb8;}.cls-2{fill:#fff;}</style></defs><g id="圖層_2" data-name="圖層 2"><g id="OBJECTS"><circle class="cls-1" cx="20" cy="20" r="20" transform="translate(-5.99 8.84) rotate(-21.77)"/><path class="cls-2" d="M16.61,19.74a6,6,0,0,1,2-3.89,7.29,7.29,0,0,0,1.87-3.78c0-1.07-.48-2.58.71-3.26s3.34.2,3.5,2.74-.2,3.46-.6,4,0,.55.44.55H29A2,2,0,0,1,31,18a2.35,2.35,0,0,1-.56,1.51,2.24,2.24,0,0,1,.8,1.91,1.62,1.62,0,0,1-1.11,1.67A2.28,2.28,0,0,1,29,25.9a2.13,2.13,0,0,1-2,2.59H20c-2,0-3.38-.8-3.38-1.91S16.61,20.73,16.61,19.74Z"/><path class="cls-2" d="M10.35,17.83h3.6A1.15,1.15,0,0,1,15.1,19v9.3a1.15,1.15,0,0,1-1.15,1.15h-3.6a.53.53,0,0,1-.53-.53V18.36A.53.53,0,0,1,10.35,17.83Z"/></g></g></svg>